Coordinates
version=1
nRows=8
nColumns=40
inDegrees=yes

Units are S.I. units (second, meters, Newtons, ...)
Angles are in degrees.

endheader
time	pelvis_tilt	pelvis_list	pelvis_rotation	pelvis_tx	pelvis_ty	pelvis_tz	hip_flexion_r	hip_adduction_r	hip_rotation_r	knee_angle_r	knee_angle_r_beta	ankle_angle_r	subtalar_angle_r	mtp_angle_r	hip_flexion_l	hip_adduction_l	hip_rotation_l	knee_angle_l	knee_angle_l_beta	ankle_angle_l	subtalar_angle_l	mtp_angle_l	lumbar_extension	lumbar_bending	lumbar_rotation	arm_flex_r	arm_add_r	arm_rot_r	elbow_flex_r	pro_sup_r	wrist_flex_r	wrist_dev_r	arm_flex_l	arm_add_l	arm_rot_l	elbow_flex_l	pro_sup_l	wrist_flex_l	wrist_dev_l
     20.07314286	     -2.97012429	     -4.23617631	      5.96604751	      1.06093704	      0.93390680	      0.49172982	      7.99491550	      2.59193144	    -16.44722674	     12.76739144	     12.76739144	      9.74935972	      0.20737347	     -6.21883246	     31.15435323	     -9.49178539	      0.52521398	     32.39830620	     32.39830620	     10.01144439	    -15.97961168	     10.59459409	    -10.25560737	      5.35919586	      1.70639021	     32.54094263	    -18.99783566	     -0.70002795	     62.05973019	     45.17000357	      0.00000000	      0.00000000	     -0.80984922	     -7.33179351	      0.11706285	     26.62955229	     45.29643324	      0.00000000	      0.00000000
     20.08628571	     -3.06011508	     -4.28478628	      6.35730415	      1.06005223	      0.93362504	      0.49121098	      7.61469012	      2.65639740	    -16.80555882	     12.46971937	     12.46971937	      9.92688295	      0.34830852	     -6.33215946	     31.27907581	     -9.12539382	      0.47037929	     29.12634542	     29.12634542	      9.79167351	    -14.60072615	     10.64824930	    -10.29106419	      5.42776717	      1.58409584	     34.05138448	    -19.01953532	     -1.10461667	     63.63725051	     45.14106867	      0.00000000	      0.00000000	     -1.80667964	     -7.17626013	      0.31645351	     26.15618572	     45.25252274	      0.00000000	      0.00000000
     20.09942857	     -3.18996117	     -4.35397781	      6.72444196	      1.05916081	      0.93323101	      0.49053586	      7.29770239	      2.72169890	    -17.15032163	     12.20799032	     12.20799032	     10.11271236	      0.54744104	     -6.45925727	     31.44726811	     -8.78886776	      0.41725557	     26.11744310	     26.11744310	      9.50621816	    -12.85917810	     10.63462024	    -10.27378233	      5.52795593	      1.56946323	     35.45406458	    -19.09205793	     -1.52908531	     65.13238576	     45.11516178	      0.00000000	      0.00000000	     -2.71193179	     -6.98065997	      0.50123408	     25.79135048	     45.21123144	      0.00000000	      0.00000000
     20.11257143	     -3.21163525	     -4.52414182	      7.02443256	      1.05853234	      0.93277004	      0.48983821	      6.86828801	      2.88498804	    -17.71132349	     11.98059920	     11.98059920	     10.33872129	      1.13635589	     -6.73822786	     31.50351443	     -8.64083881	      0.25075290	     23.40745565	     23.40745565	      8.55220110	    -11.07637082	      8.74426565	    -10.35996229	      5.74147033	      2.23540053	     35.94831678	    -19.58834798	     -3.02713110	     68.25158300	     45.08787616	      0.00000000	      0.00000000	     -3.43377980	     -6.91197088	      1.51592332	     25.74088015	     45.06252660	      0.00000000	      0.00000000
     20.12571429	     -3.34220599	     -4.58683810	      7.35562663	      1.05786200	      0.93233455	      0.48888648	      6.53956376	      2.94801803	    -17.93088561	     11.72402655	     11.72402655	     10.53687065	      1.17083754	     -6.77773900	     31.68167069	     -8.31466980	      0.26730242	     21.12576044	     21.12576044	      8.18758813	     -9.26838323	      9.02611185	    -10.28113877	      5.81194370	      2.11194236	     37.33886475	    -19.54446372	     -3.27985128	     69.17890943	     45.07500657	      0.00000000	      0.00000000	     -4.16061455	     -6.70935392	      1.71459807	     25.37341808	     45.02291268	      0.00000000	      0.00000000
     20.13885714	     -3.35183110	     -4.70132548	      7.63213031	      1.05742435	      0.93198747	      0.48786908	      6.03346061	      3.08444363	    -18.25009001	     11.39482607	     11.39482607	     10.75780911	      1.47452869	     -6.81918844	     31.80336857	     -8.15465300	      0.02696628	     19.39382480	     19.39382480	      7.81301916	     -7.36604500	      9.02805565	    -10.32041572	      5.96767445	      2.00241119	     38.67597582	    -19.39962285	     -3.69815770	     70.30587996	     45.06327551	      0.00000000	      0.00000000	     -4.97497448	     -6.58227919	      1.99401212	     25.08007312	     44.97083342	      0.00000000	      0.00000000
     20.15200000	     -3.37297842	     -4.81558013	      7.84632309	      1.05715672	      0.93162055	      0.48678462	      5.53878803	      3.21597261	    -18.52755533	     11.08476925	     11.08476925	     10.98705080	      1.81320040	     -6.84029924	     31.92285219	     -8.03591143	     -0.26908185	     18.08302439	     18.08302439	      7.29621375	     -5.80898005	      8.96872259	    -10.32146106	      6.10176991	      2.01547935	     39.78532352	    -19.30190332	     -4.17538473	     71.29002835	     45.05793458	      0.00000000	      0.00000000	     -5.71914115	     -6.47284315	      2.27606637	     24.93583919	     44.91926838	      0.00000000	      0.00000000
     20.16514286	     -3.38153531	     -4.93884239	      8.01467915	      1.05712021	      0.93123165	      0.48561992	      5.01158785	      3.36148340	    -18.76436918	     10.76421484	     10.76421484	     11.22284391	      2.16020109	     -6.82785155	     32.00926729	     -7.96283051	     -0.57172750	     17.20648025	     17.20648025	      6.70756547	     -4.69242627	      8.83178991	    -10.28015675	      6.22804296	      2.08292344	     40.78617686	    -19.19297833	     -4.65119345	     72.16429744	     45.05564167	      0.00000000	      0.00000000	     -6.42024622	     -6.37782479	      2.54833125	     24.88213355	     44.86961313	      0.00000000	      0.00000000
